<?xml version="1.0" encoding="UTF-8"?>
<svg xmlns="http://www.w3.org/2000/svg" xmlns:xlink="http://www.w3.org/1999/xlink" width="75px" height="75px" viewBox="0 0 75 75" version="1.1">
<g id="surface1">
<path style=" stroke:none;fill-rule:nonzero;fill:rgb(9.019608%,8.235294%,8.627451%);fill-opacity:1;" d="M 75 37.5 C 75 54.140625 64.21875 68.203125 49.21875 73.125 L 25.78125 73.125 C 10.78125 68.203125 0 54.140625 0 37.5 C 0 16.757812 16.757812 0 37.5 0 C 58.242188 0 75 16.757812 75 37.5 Z M 75 37.5 "/>
<path style=" stroke:none;fill-rule:nonzero;fill:rgb(19.215686%,29.019608%,32.156863%);fill-opacity:1;" d="M 70.3125 37.5 C 70.3125 55.664062 55.664062 60.9375 37.5 60.9375 C 19.335938 60.9375 4.6875 55.664062 4.6875 37.5 C 4.6875 19.335938 19.335938 4.6875 37.5 4.6875 C 55.664062 4.6875 70.3125 19.335938 70.3125 37.5 Z M 70.3125 37.5 "/>
<path style=" stroke:none;fill-rule:nonzero;fill:rgb(100%,100%,100%);fill-opacity:1;" d="M 51.5625 52.734375 C 55.078125 51.5625 60.9375 48.046875 60.9375 37.5 C 60.9375 33.398438 59.882812 29.648438 57.539062 26.601562 C 60.117188 20.390625 57.304688 16.40625 56.25 16.40625 C 55.3125 16.40625 51.328125 17.109375 47.695312 20.039062 C 44.765625 19.21875 41.367188 18.75 37.5 18.75 C 33.632812 18.75 30.234375 19.21875 27.304688 20.039062 C 23.671875 17.109375 19.6875 16.40625 18.75 16.40625 C 17.695312 16.40625 14.882812 20.390625 17.460938 26.601562 C 15.117188 29.648438 14.0625 33.398438 14.0625 37.5 C 14.0625 48.046875 19.921875 51.5625 23.4375 52.734375 C 26.25 53.671875 29.296875 54.257812 30.46875 54.492188 C 29.765625 55.195312 28.59375 57.070312 28.242188 59.648438 C 27.304688 60.351562 25.898438 60.9375 24.023438 60.9375 C 20.507812 60.9375 18.75 58.59375 16.992188 56.25 C 15.234375 53.90625 12.890625 52.734375 11.71875 52.734375 C 10.546875 52.734375 9.375 53.320312 10.546875 54.492188 C 11.71875 55.664062 13.242188 54.726562 16.40625 60.351562 C 18.75 64.570312 21.679688 64.453125 24.023438 64.453125 C 26.132812 64.453125 28.125 63.28125 28.125 63.28125 L 45.703125 63.28125 L 46.875 60.9375 C 46.875 57.65625 45.351562 55.3125 44.53125 54.492188 C 45.703125 54.257812 48.75 53.671875 51.5625 52.734375 Z M 51.5625 52.734375 "/>
<path style=" stroke:none;fill-rule:evenodd;fill:rgb(67.45098%,74.117647%,77.254902%);fill-opacity:1;" d="M 10.546875 54.492188 C 9.84375 53.789062 9.960938 53.320312 10.429688 53.085938 C 12.539062 55.195312 15.234375 56.835938 18.398438 58.007812 C 19.804688 59.648438 21.445312 60.9375 24.023438 60.9375 C 25.195312 60.9375 26.25 60.585938 27.1875 60.234375 C 30.46875 60.703125 33.984375 60.9375 37.5 60.9375 C 40.78125 60.9375 43.945312 60.820312 46.875 60.351562 C 46.875 60.585938 46.875 60.703125 46.875 60.9375 L 46.875 70.3125 L 49.570312 73.007812 C 41.71875 75.703125 33.28125 75.703125 25.429688 73.007812 L 28.125 70.3125 L 28.125 64.6875 C 27.1875 65.039062 25.546875 65.625 24.023438 65.625 C 21.679688 65.625 18.164062 65.15625 15.820312 60.9375 C 13.476562 56.601562 12.304688 55.78125 11.367188 55.195312 C 11.132812 54.960938 10.78125 54.726562 10.546875 54.492188 Z M 10.546875 54.492188 "/>
</g>
</svg>
