<?xml version="1.0" encoding="UTF-8"?>
<svg xmlns="http://www.w3.org/2000/svg" xmlns:xlink="http://www.w3.org/1999/xlink" width="89px" height="75px" viewBox="0 0 89 75" version="1.1">
<g id="surface1">
<path style=" stroke:none;fill-rule:nonzero;fill:rgb(0%,0%,0%);fill-opacity:1;" d="M 37.285156 3.320312 C 42.605469 1.070312 48.457031 0.148438 54.214844 0.542969 C 59.851562 0.96875 65.390625 2.675781 70.261719 5.554688 C 74.625 8.125 78.457031 11.597656 81.445312 15.6875 C 84.933594 20.453125 87.265625 26.066406 88.144531 31.910156 C 88.820312 36.539062 88.683594 41.3125 87.574219 45.867188 C 88.296875 47.277344 88.65625 48.902344 88.414062 50.480469 C 88.132812 52.855469 86.613281 55.023438 84.496094 56.125 C 84.011719 56.457031 83.296875 56.460938 82.96875 56.988281 C 79.109375 63.171875 73.40625 68.203125 66.753906 71.191406 C 65.367188 71.839844 63.921875 72.355469 62.472656 72.839844 L 62.167969 72.902344 C 55.179688 75.050781 47.546875 74.976562 40.566406 72.820312 C 35.34375 71.164062 30.472656 68.371094 26.453125 64.636719 C 22.605469 61.085938 19.515625 56.71875 17.46875 51.898438 C 16.554688 49.78125 15.890625 47.570312 15.351562 45.335938 C 14.390625 44.746094 13.230469 44.578125 12.121094 44.707031 C 9.832031 44.941406 7.664062 45.769531 5.449219 46.335938 C 7.027344 45.171875 8.75 44.203125 10.535156 43.398438 C 7.699219 43.433594 4.917969 44.101562 2.164062 44.738281 C 1.429688 44.921875 0.691406 45.113281 -0.0390625 45.320312 C 2.792969 42.289062 6.519531 40.238281 10.363281 38.773438 C 9.046875 38.605469 7.71875 38.449219 6.460938 38 C 5.285156 37.605469 4.191406 36.996094 3.207031 36.242188 C 4.15625 36.214844 5.109375 36.273438 6.054688 36.164062 C 8.976562 36.1875 12.042969 36.027344 14.648438 34.558594 C 15.128906 28.222656 17.304688 22.023438 20.882812 16.773438 C 24.898438 10.832031 30.664062 6.082031 37.285156 3.320312 Z M 37.285156 3.320312 "/>
<path style=" stroke:none;fill-rule:nonzero;fill:rgb(97.647059%,98.823529%,98.039216%);fill-opacity:1;" d="M 47.460938 1.867188 C 52.148438 1.382812 56.9375 1.703125 61.464844 3.042969 C 71.042969 5.773438 79.3125 12.714844 83.683594 21.667969 C 85.84375 26.003906 87.101562 30.792969 87.320312 35.636719 C 87.289062 36.648438 87.472656 37.660156 87.339844 38.667969 C 87.308594 40.664062 87.042969 42.644531 86.671875 44.601562 C 86.410156 44.351562 86.136719 44.109375 85.855469 43.878906 C 86.261719 41.296875 86.554688 38.671875 86.386719 36.054688 C 86.347656 35.371094 86.328125 34.6875 86.261719 34.003906 C 85.710938 28.570312 83.878906 23.269531 80.910156 18.683594 C 77.921875 14.027344 73.816406 10.097656 69.039062 7.316406 C 64.085938 4.429688 58.414062 2.761719 52.679688 2.625 C 51.992188 2.523438 51.292969 2.597656 50.597656 2.574219 L 50.507812 2.640625 C 44.488281 2.726562 38.53125 4.574219 33.402344 7.699219 C 28.371094 10.777344 24.132812 15.144531 21.222656 20.273438 C 18.972656 24.191406 17.519531 28.558594 16.941406 33.035156 C 16.671875 33.367188 16.269531 33.550781 15.910156 33.769531 C 16.566406 27.097656 19.21875 20.652344 23.359375 15.386719 C 27.679688 9.871094 33.648438 5.648438 40.300781 3.453125 C 42.625 2.683594 45.03125 2.152344 47.460938 1.867188 Z M 47.460938 1.867188 "/>
<path style=" stroke:none;fill-rule:nonzero;fill:rgb(98.823529%,99.215686%,98.823529%);fill-opacity:1;" d="M 49.039062 4.75 C 49.75 4.390625 50.742188 4.335938 51.332031 4.945312 C 51.738281 5.3125 51.800781 5.886719 51.9375 6.382812 C 51.550781 6.417969 51.160156 6.4375 50.777344 6.433594 C 50.644531 6.191406 50.636719 5.800781 50.332031 5.699219 C 50.085938 5.636719 49.832031 5.707031 49.589844 5.734375 C 49.570312 5.9375 49.558594 6.144531 49.550781 6.355469 C 50.25 6.609375 51.035156 6.757812 51.582031 7.304688 C 52.195312 7.882812 52.148438 8.871094 51.78125 9.566406 C 51.234375 10.59375 49.703125 10.738281 48.851562 10.03125 C 48.394531 9.597656 48.308594 8.953125 48.214844 8.367188 C 48.632812 8.367188 49.046875 8.367188 49.460938 8.363281 C 49.550781 8.617188 49.589844 8.898438 49.761719 9.117188 C 49.929688 9.371094 50.257812 9.273438 50.515625 9.285156 C 50.695312 8.96875 50.796875 8.589844 50.675781 8.230469 C 50.277344 7.855469 49.683594 7.859375 49.210938 7.613281 C 48.121094 7.136719 48.003906 5.347656 49.039062 4.75 Z M 49.039062 4.75 "/>
<path style=" stroke:none;fill-rule:nonzero;fill:rgb(98.431373%,99.215686%,98.039216%);fill-opacity:1;" d="M 54.496094 4.808594 C 55.175781 4.671875 56.027344 4.691406 56.527344 5.25 C 56.941406 5.671875 56.996094 6.300781 56.988281 6.859375 C 56.628906 6.847656 56.273438 6.820312 55.917969 6.773438 C 55.800781 6.519531 55.730469 6.246094 55.625 5.984375 C 55.390625 5.953125 55.109375 5.757812 54.894531 5.933594 C 54.617188 6.0625 54.582031 6.496094 54.878906 6.625 C 55.460938 6.933594 56.125 7.171875 56.53125 7.722656 C 57.046875 8.367188 56.894531 9.324219 56.457031 9.96875 C 55.753906 10.960938 54.042969 10.910156 53.375 9.914062 C 53.0625 9.453125 53.085938 8.867188 53.066406 8.339844 C 53.472656 8.386719 53.882812 8.445312 54.292969 8.464844 C 54.367188 8.78125 54.335938 9.15625 54.582031 9.402344 C 54.722656 9.484375 54.882812 9.519531 55.039062 9.5625 C 55.117188 9.519531 55.273438 9.433594 55.351562 9.386719 C 55.523438 9.089844 55.558594 8.746094 55.496094 8.410156 C 54.945312 8.0625 54.269531 7.890625 53.808594 7.410156 C 53.160156 6.605469 53.445312 5.128906 54.496094 4.808594 Z M 43.464844 5.664062 C 43.96875 5.265625 44.667969 5.167969 45.285156 5.324219 C 46.003906 5.582031 46.488281 6.285156 46.585938 7.03125 C 46.183594 7.132812 45.777344 7.234375 45.367188 7.296875 C 45.304688 7.09375 45.242188 6.894531 45.179688 6.699219 C 44.960938 6.648438 44.746094 6.601562 44.527344 6.550781 C 44.3125 6.703125 44.035156 6.824219 43.980469 7.109375 C 44.105469 7.871094 44.265625 8.632812 44.445312 9.382812 C 44.542969 9.890625 45.261719 10.054688 45.601562 9.6875 C 45.832031 9.484375 45.746094 9.144531 45.792969 8.878906 C 46.164062 8.761719 46.542969 8.644531 46.933594 8.589844 C 47.195312 8.953125 47.175781 9.445312 47.066406 9.863281 C 46.796875 10.585938 46.046875 10.980469 45.335938 11.164062 C 44.402344 11.292969 43.347656 10.660156 43.199219 9.683594 C 43.035156 8.835938 42.859375 7.984375 42.714844 7.132812 C 42.597656 6.53125 43.011719 6.003906 43.464844 5.664062 Z M 62.722656 8.5625 C 63.027344 7.921875 63.609375 7.289062 64.375 7.320312 C 65.441406 7.328125 66.644531 8.203125 66.464844 9.375 C 66.3125 10.179688 65.847656 10.875 65.554688 11.632812 C 65.226562 12.320312 64.984375 13.058594 64.589844 13.710938 C 64.214844 13.613281 63.875 13.421875 63.519531 13.265625 C 63.609375 12.742188 63.898438 12.285156 64.097656 11.800781 C 64.421875 11.03125 64.792969 10.28125 65.097656 9.503906 C 65.226562 9.246094 65.0625 8.996094 64.980469 8.757812 C 64.652344 8.707031 64.199219 8.597656 64.023438 8.972656 C 63.464844 10.199219 62.9375 11.433594 62.378906 12.65625 C 61.925781 12.609375 61.515625 12.386719 61.128906 12.164062 C 61.652344 10.960938 62.195312 9.765625 62.722656 8.5625 Z M 62.722656 8.5625 "/>
<path style=" stroke:none;fill-rule:nonzero;fill:rgb(98.039216%,99.215686%,98.039216%);fill-opacity:1;" d="M 33.480469 9.886719 C 33.835938 9.671875 34.191406 9.445312 34.566406 9.261719 C 35.40625 10.589844 36.128906 11.992188 36.957031 13.328125 C 37.582031 12.976562 38.183594 12.597656 38.820312 12.273438 C 39.03125 12.625 39.230469 12.980469 39.417969 13.34375 C 38.417969 13.882812 37.453125 14.480469 36.460938 15.03125 C 35.464844 13.316406 34.492188 11.589844 33.480469 9.886719 Z M 33.480469 9.886719 "/>
<path style=" stroke:none;fill-rule:nonzero;fill:rgb(98.431373%,99.215686%,98.039216%);fill-opacity:1;" d="M 68.085938 10.308594 C 68.980469 9.714844 70.347656 10.0625 70.847656 11.007812 C 70.996094 11.257812 71.070312 11.546875 71.164062 11.820312 C 71.136719 12.207031 71.085938 12.613281 70.84375 12.933594 C 70.324219 13.65625 69.839844 14.402344 69.292969 15.105469 C 68.890625 15.605469 68.183594 15.710938 67.589844 15.578125 C 66.476562 15.367188 65.65625 14.082031 66.109375 13.003906 C 66.394531 12.488281 66.777344 12.03125 67.097656 11.535156 C 67.410156 11.113281 67.660156 10.628906 68.085938 10.308594 Z M 68.085938 10.308594 "/>
<path style=" stroke:none;fill-rule:nonzero;fill:rgb(0.392157%,0.392157%,0.392157%);fill-opacity:1;" d="M 68.386719 11.699219 C 68.535156 11.457031 68.796875 11.328125 69.046875 11.21875 C 69.257812 11.3125 69.464844 11.40625 69.671875 11.507812 C 69.785156 11.816406 69.925781 12.1875 69.707031 12.488281 C 69.378906 12.988281 69.035156 13.476562 68.683594 13.960938 C 68.355469 14.355469 67.761719 14.378906 67.371094 14.066406 C 67.316406 13.910156 67.261719 13.761719 67.207031 13.605469 C 67.46875 12.898438 67.976562 12.320312 68.386719 11.699219 Z M 68.386719 11.699219 "/>
<path style=" stroke:none;fill-rule:nonzero;fill:rgb(98.431373%,99.215686%,98.431373%);fill-opacity:1;" d="M 30.140625 12.40625 C 30.824219 11.691406 32.125 11.539062 32.835938 12.289062 C 33.78125 13.3125 34.753906 14.316406 35.675781 15.367188 C 35.375 15.644531 35.085938 15.929688 34.785156 16.207031 C 33.800781 15.269531 32.957031 14.199219 31.980469 13.261719 C 31.773438 13.042969 31.457031 13.132812 31.195312 13.125 C 31.023438 13.386719 30.835938 13.753906 31.078125 14.03125 C 31.949219 15.019531 32.863281 15.96875 33.773438 16.921875 C 33.769531 17.007812 33.765625 17.089844 33.761719 17.175781 C 33.453125 17.425781 33.175781 17.707031 32.882812 17.972656 C 32.0625 17.066406 31.199219 16.195312 30.390625 15.277344 C 30.164062 15.046875 29.917969 14.722656 29.546875 14.828125 C 29.167969 14.933594 28.9375 15.445312 29.257812 15.746094 C 30.160156 16.757812 31.097656 17.742188 32.03125 18.726562 C 31.753906 19.0625 31.421875 19.34375 31.089844 19.625 C 30.152344 18.652344 29.25 17.648438 28.316406 16.671875 C 27.777344 16.152344 27.679688 15.304688 27.976562 14.636719 C 28.214844 13.933594 28.9375 13.53125 29.652344 13.496094 C 29.757812 13.109375 29.855469 12.703125 30.140625 12.40625 Z M 30.140625 12.40625 "/>
<path style=" stroke:none;fill-rule:nonzero;fill:rgb(100%,100%,100%);fill-opacity:1;" d="M 41.097656 14.398438 C 45.964844 12.164062 51.550781 11.566406 56.785156 12.683594 C 61.84375 13.742188 66.53125 16.421875 70.050781 20.191406 C 71.976562 22.265625 73.5625 24.652344 74.722656 27.234375 C 75.503906 29.074219 76.144531 30.992188 76.460938 32.972656 C 73.832031 32.457031 71.234375 31.757812 68.707031 30.855469 C 67.507812 30.421875 66.316406 29.941406 65.195312 29.332031 C 65.019531 29.238281 64.859375 29.117188 64.738281 28.960938 C 64.230469 28.359375 63.722656 27.757812 63.214844 27.160156 C 63.085938 26.925781 62.8125 27.011719 62.597656 27.003906 C 62.550781 26.757812 62.515625 26.511719 62.484375 26.265625 C 61.984375 25.757812 61.996094 25.035156 61.972656 24.367188 C 61.765625 22.351562 61.863281 20.28125 61.269531 18.320312 C 60.492188 16.582031 58.890625 15.175781 56.988281 14.847656 C 55.644531 14.636719 54.253906 14.742188 52.949219 15.117188 C 50.519531 15.796875 48.296875 17.050781 46.191406 18.414062 C 44.289062 19.664062 42.484375 21.054688 40.734375 22.511719 C 38.570312 22.628906 36.570312 23.546875 34.667969 24.519531 C 33.421875 25.125 32.179688 25.796875 30.808594 26.082031 C 30.128906 26.171875 29.445312 26.222656 28.773438 26.382812 C 31.335938 21.125 35.769531 16.808594 41.097656 14.398438 Z M 41.097656 14.398438 "/>
<path style=" stroke:none;fill-rule:nonzero;fill:rgb(98.431373%,99.215686%,98.431373%);fill-opacity:1;" d="M 72.484375 13.210938 C 72.71875 12.976562 72.921875 12.640625 73.296875 12.664062 C 73.902344 13.402344 74.875 13.886719 75.132812 14.871094 C 75.222656 15.40625 75.105469 16.003906 74.722656 16.402344 C 74.160156 17.035156 73.585938 17.65625 72.988281 18.257812 C 72.511719 18.757812 71.734375 18.796875 71.113281 18.597656 C 70.332031 18.175781 69.730469 17.496094 69.085938 16.894531 C 70.1875 15.636719 71.371094 14.457031 72.484375 13.210938 Z M 72.484375 13.210938 "/>
<path style=" stroke:none;fill-rule:nonzero;fill:rgb(0.392157%,0%,0.392157%);fill-opacity:1;" d="M 73.203125 14.425781 C 73.554688 14.636719 73.84375 14.953125 73.863281 15.386719 C 73.238281 16.0625 72.617188 16.742188 71.980469 17.40625 C 71.78125 17.402344 71.582031 17.398438 71.386719 17.394531 C 71.222656 17.234375 71.054688 17.070312 70.886719 16.910156 C 71.671875 16.09375 72.441406 15.265625 73.203125 14.425781 Z M 73.203125 14.425781 "/>
<path style=" stroke:none;fill-rule:nonzero;fill:rgb(100%,100%,100%);fill-opacity:1;" d="M 49.539062 18.988281 C 51.453125 17.886719 53.492188 16.84375 55.71875 16.589844 C 57.128906 16.402344 58.71875 16.816406 59.601562 18 C 60.320312 18.789062 60.398438 19.902344 60.496094 20.910156 C 60.625 21.925781 60.566406 22.953125 60.726562 23.96875 C 60.328125 24.042969 59.9375 24.15625 59.539062 24.1875 C 59.332031 24.089844 59.125 23.996094 58.945312 23.859375 C 58.875 23.582031 58.832031 23.300781 58.789062 23.019531 C 57.167969 23.324219 55.457031 23.660156 54.128906 24.703125 C 53.460938 25.214844 53.066406 26 52.929688 26.816406 C 52.929688 27.0625 52.921875 27.3125 52.941406 27.5625 C 53.164062 27.75 53.488281 27.699219 53.757812 27.765625 C 53.378906 28.460938 53.042969 29.1875 52.9375 29.980469 L 52.9375 30.53125 C 53.574219 30.433594 54.113281 30.070312 54.703125 29.851562 C 54.679688 29.992188 54.628906 30.277344 54.601562 30.417969 C 54.589844 30.609375 54.578125 30.804688 54.570312 30.996094 C 54.695312 31.300781 54.84375 31.59375 55.015625 31.875 C 55.871094 31.6875 56.609375 31.195312 57.425781 30.902344 L 57.332031 31.375 C 57.367188 31.46875 57.429688 31.65625 57.460938 31.746094 C 58.339844 31.53125 59.171875 31.15625 59.910156 30.636719 C 60.875 30.015625 61.8125 29.203125 62.984375 29.050781 C 63.640625 29.460938 63.945312 30.316406 64.636719 30.714844 C 65.761719 31.394531 66.984375 31.894531 68.210938 32.363281 C 70.722656 33.300781 73.3125 34.035156 75.9375 34.589844 C 77.300781 34.886719 78.691406 35.089844 80.015625 35.550781 C 80.753906 35.820312 81.5 36.273438 81.828125 37.023438 C 82.445312 38.496094 82.4375 40.238281 81.710938 41.671875 C 81.058594 42.871094 79.898438 43.851562 78.539062 44.113281 C 73.097656 45.371094 67.566406 46.21875 62.035156 46.953125 C 60.390625 47.136719 58.75 47.335938 57.101562 47.472656 C 53.304688 47.8125 49.488281 48.003906 45.671875 47.957031 C 44.421875 47.976562 43.160156 47.945312 41.9375 47.65625 C 41.460938 47.476562 40.96875 47.269531 40.625 46.878906 C 40.148438 46.417969 40.019531 45.75 39.898438 45.128906 C 39.695312 43.988281 39.425781 42.855469 39.386719 41.695312 C 39.34375 40.683594 39.683594 39.71875 39.875 38.738281 C 40.46875 35.785156 40.933594 32.796875 41.6875 29.875 C 41.789062 29.519531 41.734375 29.140625 41.832031 28.78125 C 42.230469 27.121094 42.699219 25.476562 43.128906 23.820312 C 43.179688 23.679688 43.199219 23.507812 43.316406 23.410156 C 45.296875 21.8125 47.34375 20.285156 49.539062 18.988281 Z M 49.539062 18.988281 "/>
<path style=" stroke:none;fill-rule:nonzero;fill:rgb(98.431373%,99.215686%,98.431373%);fill-opacity:1;" d="M 72.347656 20.152344 C 73.953125 18.992188 75.550781 17.824219 77.160156 16.664062 C 77.734375 17.492188 78.339844 18.296875 78.921875 19.117188 C 78.59375 19.351562 78.28125 19.613281 77.921875 19.804688 C 77.527344 19.359375 77.199219 18.859375 76.855469 18.375 C 76.597656 18.554688 76.339844 18.726562 76.082031 18.902344 C 76.097656 19.304688 76.429688 19.578125 76.617188 19.90625 C 76.3125 20.132812 76.007812 20.359375 75.691406 20.570312 C 75.480469 20.277344 75.277344 19.976562 75.039062 19.707031 C 74.765625 19.867188 74.511719 20.050781 74.253906 20.230469 L 74.070312 20.457031 C 74.421875 20.929688 74.769531 21.402344 75.097656 21.890625 C 74.773438 22.136719 74.4375 22.375 74.09375 22.59375 C 73.523438 21.773438 72.875 21 72.347656 20.152344 Z M 72.347656 20.152344 "/>
<path style=" stroke:none;fill-rule:nonzero;fill:rgb(98.823529%,99.215686%,98.039216%);fill-opacity:1;" d="M 25.4375 17.320312 C 25.566406 17.144531 25.671875 16.945312 25.851562 16.816406 C 26.210938 16.976562 26.496094 17.257812 26.8125 17.488281 C 26.5625 17.835938 26.304688 18.175781 26.074219 18.539062 C 27.34375 19.449219 28.597656 20.382812 29.871094 21.285156 C 29.683594 21.644531 29.433594 21.964844 29.191406 22.285156 C 27.894531 21.367188 26.628906 20.414062 25.332031 19.5 C 25.109375 19.828125 24.902344 20.164062 24.648438 20.464844 C 24.246094 20.445312 23.964844 20.046875 23.628906 19.855469 C 24.175781 18.972656 24.851562 18.175781 25.4375 17.320312 Z M 25.4375 17.320312 "/>
<path style=" stroke:none;fill-rule:nonzero;fill:rgb(98.823529%,99.607843%,98.431373%);fill-opacity:1;" d="M 22.210938 22.480469 C 22.425781 22.0625 22.644531 21.640625 22.90625 21.25 C 24.605469 22.175781 26.347656 23.03125 28.019531 24.003906 C 28.042969 24.46875 27.648438 24.882812 27.429688 25.285156 C 26.726562 24.949219 26.082031 24.484375 25.347656 24.222656 C 25.238281 24.464844 25.128906 24.703125 25.019531 24.945312 C 25.683594 25.34375 26.417969 25.617188 27.046875 26.074219 C 26.84375 26.484375 26.621094 26.886719 26.40625 27.289062 C 24.664062 26.414062 22.957031 25.464844 21.230469 24.558594 C 21.164062 24.296875 21.390625 24.054688 21.484375 23.820312 C 21.605469 23.648438 21.65625 23.375 21.871094 23.300781 C 22.570312 23.613281 23.214844 24.035156 23.914062 24.351562 C 24.042969 24.109375 24.175781 23.871094 24.316406 23.636719 C 23.617188 23.246094 22.902344 22.882812 22.210938 22.480469 Z M 22.210938 22.480469 "/>
<path style=" stroke:none;fill-rule:nonzero;fill:rgb(96.470588%,98.823529%,97.254902%);fill-opacity:1;" d="M 74.707031 23.136719 C 74.863281 22.710938 75.386719 22.6875 75.722656 22.90625 C 75.867188 23.207031 75.878906 23.523438 75.714844 23.820312 C 75.546875 23.886719 75.378906 23.953125 75.210938 24.019531 C 74.90625 23.847656 74.453125 23.539062 74.707031 23.136719 Z M 74.707031 23.136719 "/>
<path style=" stroke:none;fill-rule:nonzero;fill:rgb(97.254902%,98.431373%,97.647059%);fill-opacity:1;" d="M 54.414062 25.902344 C 55.679688 24.816406 57.269531 24.265625 58.832031 23.777344 L 58.945312 23.859375 C 59.125 23.996094 59.332031 24.089844 59.539062 24.1875 C 57.800781 24.875 56.125 25.710938 54.414062 26.449219 C 54.410156 26.265625 54.410156 26.085938 54.414062 25.902344 Z M 54.414062 25.902344 "/>
<path style=" stroke:none;fill-rule:nonzero;fill:rgb(98.823529%,99.215686%,98.431373%);fill-opacity:1;" d="M 76.164062 25.015625 C 76.394531 24.472656 76.914062 24.144531 77.433594 23.917969 C 77.609375 24.324219 77.796875 24.730469 77.972656 25.140625 C 77.617188 25.332031 77.285156 25.613281 77.359375 26.058594 C 77.566406 26.113281 77.785156 26.292969 78.003906 26.183594 C 79.304688 25.660156 80.550781 25 81.835938 24.441406 C 82.023438 24.875 82.234375 25.292969 82.40625 25.734375 C 81.46875 26.183594 80.515625 26.605469 79.578125 27.058594 C 78.933594 27.316406 78.261719 27.703125 77.542969 27.566406 C 76.433594 27.382812 75.679688 26.042969 76.164062 25.015625 Z M 76.164062 25.015625 "/>
<path style=" stroke:none;fill-rule:nonzero;fill:rgb(100%,100%,100%);fill-opacity:1;" d="M 31.925781 27.882812 C 35.214844 27.21875 37.871094 24.734375 41.25 24.386719 C 40.859375 25.984375 40.386719 27.5625 40.003906 29.160156 C 39.886719 29.664062 39.90625 30.1875 39.75 30.679688 C 38.871094 34.09375 38.429688 37.601562 37.613281 41.03125 C 37.390625 42.058594 37.515625 43.121094 37.710938 44.148438 C 37.808594 44.832031 37.953125 45.511719 38.21875 46.15625 C 37.09375 46.203125 35.988281 46.585938 35.027344 47.171875 C 33.933594 47.816406 33.113281 48.945312 31.792969 49.160156 C 30.140625 49.277344 28.722656 48.214844 27.105469 48.09375 C 26.519531 48.089844 25.972656 48.382812 25.382812 48.359375 C 25.492188 48.28125 25.597656 48.203125 25.707031 48.125 C 26.535156 47.691406 27.355469 47.191406 28.296875 47.058594 C 29.449219 46.925781 30.605469 46.84375 31.746094 46.65625 C 32.371094 46.542969 32.945312 46.246094 33.421875 45.832031 C 34.050781 45.300781 35.078125 45.1875 35.367188 44.320312 C 35.425781 43.699219 35.296875 42.699219 34.523438 42.617188 C 33.863281 42.710938 33.320312 43.15625 32.808594 43.554688 C 31.964844 44.222656 31.199219 45 30.285156 45.578125 C 29.871094 45.863281 29.351562 45.78125 28.882812 45.789062 C 28.1875 45.777344 27.523438 45.511719 26.832031 45.460938 C 25.789062 45.570312 24.792969 45.929688 23.804688 46.261719 C 23.046875 46.496094 22.269531 46.753906 21.46875 46.714844 C 20.375 46.683594 19.335938 46.285156 18.371094 45.796875 C 19.035156 45.777344 19.707031 45.835938 20.363281 45.726562 C 22.59375 45.40625 24.613281 44.324219 26.785156 43.789062 C 27.476562 43.585938 28.222656 43.792969 28.90625 43.527344 C 29.929688 43.175781 30.898438 42.316406 31.039062 41.195312 C 31.109375 40.757812 30.9375 40.355469 30.734375 39.984375 C 30.117188 39.425781 29.261719 39.761719 28.628906 40.105469 C 26.800781 41.140625 25.300781 42.65625 23.488281 43.710938 C 22.996094 43.988281 22.433594 44.15625 21.867188 44.132812 C 20.652344 44.097656 19.488281 43.710938 18.292969 43.527344 C 17.191406 43.320312 16.066406 43.359375 14.953125 43.40625 C 17.050781 42.390625 19.445312 42.496094 21.691406 42.082031 C 22.511719 41.925781 23.410156 41.816406 24.082031 41.277344 C 24.347656 41.082031 24.359375 40.730469 24.402344 40.433594 C 24.121094 39.644531 23.46875 38.886719 22.570312 38.871094 C 21.179688 38.914062 20.027344 39.792969 18.90625 40.523438 C 18.132812 41.023438 17.351562 41.742188 16.359375 41.625 C 15.34375 41.488281 14.351562 41.152344 13.316406 41.167969 L 13.226562 41.105469 C 12.230469 41.089844 11.234375 41.195312 10.253906 41.378906 C 11.078125 40.863281 11.914062 40.324219 12.859375 40.058594 C 13.976562 39.734375 15.160156 39.863281 16.296875 39.65625 C 18.191406 39.121094 19.414062 37.429688 21.105469 36.527344 C 21.613281 36.28125 22.1875 36.078125 22.757812 36.203125 C 24.1875 36.433594 25.035156 37.828125 26.402344 38.203125 C 27.625 38.503906 28.902344 38.042969 29.890625 37.324219 C 30.425781 36.953125 30.867188 36.414062 31.011719 35.769531 C 30.765625 35.082031 29.910156 34.949219 29.273438 35.007812 C 28.210938 35.101562 27.585938 36.078125 26.691406 36.527344 C 25.351562 36.378906 24.375 35.363281 23.148438 34.929688 C 22.359375 34.730469 21.445312 34.828125 20.804688 35.367188 C 19.785156 36.1875 18.714844 37.011719 17.4375 37.382812 C 15.953125 37.863281 14.351562 37.625 12.902344 37.136719 C 14.417969 36.984375 15.957031 36.660156 17.269531 35.851562 C 18.878906 34.890625 20.078125 33.183594 22.007812 32.820312 C 23.082031 32.539062 24.144531 33.019531 25.070312 33.53125 C 25.652344 33.820312 26.285156 34.167969 26.960938 34.039062 C 27.976562 33.808594 28.714844 33.023438 29.570312 32.488281 C 29.976562 32.226562 30.527344 32.203125 30.832031 31.792969 C 31.09375 31.578125 31.003906 31.226562 31.027344 30.933594 C 30.761719 30.636719 30.40625 30.40625 29.992188 30.488281 C 28.65625 30.601562 27.863281 31.90625 26.621094 32.261719 C 26.148438 32.363281 25.695312 32.144531 25.253906 32.007812 C 24.523438 31.753906 23.753906 31.566406 22.972656 31.601562 C 22.253906 31.566406 21.574219 31.8125 20.878906 31.933594 C 21.207031 31.644531 21.527344 31.335938 21.941406 31.164062 C 22.917969 30.722656 24.023438 30.910156 25.046875 30.683594 C 25.980469 30.453125 26.695312 29.777344 27.496094 29.285156 C 28.332031 28.71875 29.273438 28.300781 30.269531 28.109375 C 30.8125 27.976562 31.378906 28.007812 31.925781 27.882812 Z M 31.925781 27.882812 "/>
<path style=" stroke:none;fill-rule:nonzero;fill:rgb(93.333333%,98.039216%,97.647059%);fill-opacity:1;" d="M 55.324219 27.832031 C 56.484375 27.007812 57.59375 26.074219 58.921875 25.53125 C 58.621094 25.871094 58.285156 26.171875 57.925781 26.445312 C 56.5625 27.503906 55.179688 28.535156 53.761719 29.519531 C 54.046875 28.78125 54.753906 28.335938 55.324219 27.832031 Z M 55.324219 27.832031 "/>
<path style=" stroke:none;fill-rule:nonzero;fill:rgb(99.215686%,99.215686%,98.823529%);fill-opacity:1;" d="M 60.105469 26.851562 C 60.5 26.714844 60.925781 26.675781 61.335938 26.773438 C 61.367188 27.515625 60.652344 27.949219 60.175781 28.410156 C 58.695312 29.59375 56.96875 30.421875 55.21875 31.132812 C 55.324219 30.402344 55.570312 29.710938 55.832031 29.027344 C 57.207031 28.210938 58.582031 27.359375 60.105469 26.851562 Z M 60.105469 26.851562 "/>
<path style=" stroke:none;fill-rule:nonzero;fill:rgb(98.431373%,99.607843%,98.431373%);fill-opacity:1;" d="M 80.429688 28.738281 C 80.734375 28.175781 81.390625 27.960938 81.984375 27.894531 C 83.132812 27.910156 83.78125 29.265625 83.515625 30.265625 C 83.339844 30.949219 82.671875 31.292969 82.070312 31.535156 C 81.964844 31.164062 81.867188 30.785156 81.773438 30.414062 C 81.980469 30.238281 82.371094 30.164062 82.371094 29.832031 C 82.375 29.636719 82.335938 29.441406 82.316406 29.246094 C 82.121094 29.1875 81.925781 29.132812 81.730469 29.089844 L 81.542969 29.414062 C 81.515625 30.222656 81.464844 31.15625 80.8125 31.738281 C 80.335938 32.222656 79.59375 32.207031 78.972656 32.117188 C 77.886719 31.828125 77.390625 30.476562 77.78125 29.488281 C 78.058594 28.882812 78.703125 28.597656 79.292969 28.382812 C 79.414062 28.78125 79.515625 29.1875 79.613281 29.59375 C 79.300781 29.789062 78.761719 29.9375 78.847656 30.40625 C 78.796875 30.652344 79.042969 30.769531 79.183594 30.921875 C 79.496094 30.890625 79.902344 30.9375 80.089844 30.621094 C 80.253906 30.003906 80.152344 29.324219 80.429688 28.738281 Z M 80.429688 28.738281 "/>
<path style=" stroke:none;fill-rule:nonzero;fill:rgb(0.392157%,0.392157%,0.784314%);fill-opacity:1;" d="M 46.179688 34.800781 C 46.550781 33.585938 47.742188 32.878906 48.945312 32.730469 C 49.90625 32.671875 50.949219 32.820312 51.707031 33.460938 C 52.230469 33.859375 52.429688 34.515625 52.609375 35.121094 C 52.902344 35.121094 53.199219 35.125 53.496094 35.148438 C 53.542969 34.371094 54.210938 33.78125 54.902344 33.527344 C 55.328125 33.355469 55.734375 33.597656 56.109375 33.78125 C 56.429688 33.625 56.710938 33.332031 57.09375 33.386719 C 57.421875 33.347656 57.753906 33.664062 58.066406 33.480469 C 58.527344 33.222656 59.128906 33.144531 59.589844 33.445312 C 60.078125 33.671875 60.242188 34.222656 60.367188 34.699219 C 61.34375 34.359375 62.511719 34.289062 63.371094 34.957031 C 63.621094 34.84375 63.871094 34.726562 64.121094 34.605469 C 64.300781 33.773438 65.214844 33.226562 66.03125 33.441406 C 66.933594 33.636719 67.519531 34.777344 66.933594 35.566406 C 67.074219 36.050781 67.113281 36.5625 66.925781 37.042969 C 67.289062 37.402344 67.683594 37.839844 67.601562 38.394531 C 67.667969 39.148438 67.109375 39.746094 66.535156 40.140625 C 66.902344 40.703125 66.675781 41.375 66.890625 41.976562 C 67.03125 42.554688 66.921875 43.222656 66.457031 43.632812 C 65.820312 44.316406 64.804688 44.214844 63.964844 44.367188 C 63.808594 44.269531 63.65625 44.171875 63.5 44.074219 C 62.644531 44.480469 61.582031 44.554688 60.792969 43.953125 C 60.484375 44.246094 60.105469 44.460938 59.699219 44.582031 C 59.277344 45.15625 58.726562 45.734375 57.992188 45.863281 C 57.285156 45.886719 56.792969 45.25 56.667969 44.609375 C 55.957031 44.832031 55.226562 44.730469 54.535156 44.492188 C 53.929688 44.976562 53.09375 45.035156 52.375 44.792969 C 52.070312 45.394531 51.636719 45.941406 51.019531 46.242188 C 49.707031 46.902344 47.898438 46.679688 46.953125 45.488281 C 46.164062 44.515625 46.296875 42.992188 47.222656 42.15625 C 47.085938 41.851562 46.980469 41.539062 46.921875 41.214844 C 46.738281 41.160156 46.550781 41.101562 46.371094 41.050781 C 46.191406 41.140625 46.015625 41.234375 45.84375 41.328125 C 44.910156 41.332031 43.96875 41.234375 43.058594 41.476562 C 42.800781 41.292969 42.492188 41.152344 42.324219 40.875 C 42.164062 40.589844 42.199219 40.253906 42.1875 39.941406 C 40.996094 39.59375 40.609375 37.929688 41.4375 37.046875 C 41.949219 36.492188 42.742188 36.402344 43.453125 36.433594 C 43.90625 36.214844 44.4375 35.921875 44.917969 36.257812 C 45.523438 36.523438 45.4375 37.273438 45.746094 37.75 C 46.207031 38.058594 46.71875 37.625 47.214844 37.625 C 46.21875 37.101562 45.941406 35.828125 46.179688 34.800781 Z M 46.179688 34.800781 "/>
<path style=" stroke:none;fill-rule:nonzero;fill:rgb(97.647059%,98.823529%,98.039216%);fill-opacity:1;" d="M 48.433594 33.769531 C 49.238281 33.527344 50.164062 33.546875 50.902344 33.984375 C 51.679688 34.417969 51.929688 35.5625 51.398438 36.277344 C 51.175781 36.574219 50.808594 36.6875 50.484375 36.824219 C 50.878906 37.867188 51.488281 39.046875 52.636719 39.382812 C 53.300781 39.5625 53.820312 38.910156 54.464844 38.972656 C 54.820312 38.980469 54.792969 39.429688 54.824219 39.683594 C 54.230469 40.601562 52.9375 40.761719 52.007812 40.304688 C 51.074219 39.824219 50.472656 38.886719 50.09375 37.941406 C 49.945312 37.5625 49.824219 37.175781 49.695312 36.789062 C 49.636719 36.796875 49.515625 36.8125 49.457031 36.820312 C 49.472656 37.050781 49.488281 37.28125 49.503906 37.507812 C 49.648438 37.574219 49.792969 37.640625 49.941406 37.707031 C 49.902344 37.878906 49.863281 38.050781 49.820312 38.21875 C 49.554688 38.683594 49.152344 39.058594 48.679688 39.316406 C 48.546875 39.1875 48.375 39.089844 48.289062 38.921875 C 48.398438 38.609375 48.648438 38.347656 48.65625 38 C 48.675781 37.402344 48.59375 36.804688 48.605469 36.207031 C 48.617188 35.851562 48.367188 35.578125 48.179688 35.308594 C 48.46875 34.914062 48.96875 34.980469 49.398438 34.992188 C 49.441406 35.066406 49.484375 35.140625 49.53125 35.214844 C 49.46875 35.53125 49.445312 35.851562 49.433594 36.171875 C 49.824219 36.167969 50.304688 36.21875 50.558594 35.851562 C 50.960938 35.402344 50.589844 34.707031 50.070312 34.550781 C 49.273438 34.277344 48.121094 34.476562 47.800781 35.359375 C 47.933594 35.859375 48.425781 36.21875 48.394531 36.761719 C 48.183594 36.84375 47.957031 37.027344 47.726562 36.902344 C 47.074219 36.566406 46.855469 35.71875 47.066406 35.054688 C 47.230469 34.40625 47.8125 33.945312 48.433594 33.769531 Z M 48.433594 33.769531 "/>
<path style=" stroke:none;fill-rule:nonzero;fill:rgb(95.686275%,98.039216%,97.647059%);fill-opacity:1;" d="M 58.570312 34.207031 C 58.78125 34.128906 59.007812 34.179688 59.230469 34.1875 C 59.414062 34.519531 59.539062 35.03125 59.191406 35.300781 C 58.914062 35.40625 58.507812 35.390625 58.382812 35.074219 C 58.183594 34.789062 58.363281 34.433594 58.570312 34.207031 Z M 58.570312 34.207031 "/>
<path style=" stroke:none;fill-rule:nonzero;fill:rgb(97.254902%,98.823529%,97.647059%);fill-opacity:1;" d="M 54.402344 35.058594 C 54.582031 34.679688 54.976562 34.480469 55.339844 34.316406 C 55.835938 35.449219 55.550781 36.726562 55.773438 37.910156 C 55.898438 38.054688 56.039062 38.183594 56.175781 38.320312 C 56.179688 38.394531 56.1875 38.542969 56.191406 38.617188 C 55.710938 38.847656 55.167969 38.785156 54.652344 38.75 C 54.648438 38.667969 54.644531 38.496094 54.640625 38.414062 C 54.738281 38.265625 54.835938 38.113281 54.910156 37.953125 C 54.890625 37.136719 54.78125 36.324219 54.796875 35.511719 C 54.664062 35.363281 54.320312 35.324219 54.402344 35.058594 Z M 56.292969 34.816406 C 56.574219 34.570312 56.867188 34.308594 57.246094 34.230469 C 57.539062 34.886719 57.488281 35.625 57.558594 36.328125 C 57.609375 36.945312 57.425781 37.683594 57.929688 38.164062 L 58.429688 38.164062 C 58.496094 38.085938 58.628906 37.929688 58.691406 37.855469 C 58.695312 37.4375 58.695312 37.023438 58.675781 36.609375 C 58.554688 36.578125 58.308594 36.519531 58.1875 36.488281 C 58.300781 35.992188 58.746094 35.699219 59.1875 35.519531 C 59.484375 36.21875 59.34375 36.996094 59.488281 37.730469 C 59.636719 37.882812 59.785156 38.035156 59.933594 38.1875 C 59.929688 38.253906 59.917969 38.386719 59.914062 38.453125 C 59.46875 38.535156 59.019531 38.574219 58.566406 38.578125 C 58.425781 38.472656 58.289062 38.371094 58.148438 38.265625 C 57.8125 38.886719 56.992188 38.699219 56.429688 38.574219 C 56.546875 38.246094 56.824219 37.949219 56.78125 37.578125 C 56.753906 36.980469 56.710938 36.386719 56.683594 35.789062 C 56.660156 35.644531 56.644531 35.503906 56.628906 35.363281 C 56.335938 35.3125 56.300781 35.0625 56.292969 34.816406 Z M 56.292969 34.816406 "/>
<path style=" stroke:none;fill-rule:nonzero;fill:rgb(96.470588%,98.039216%,96.862745%);fill-opacity:1;" d="M 65.105469 34.597656 C 65.390625 34.058594 66.40625 34.3125 66.257812 34.964844 C 66.070312 35.289062 65.691406 35.128906 65.394531 35.148438 C 65.714844 35.582031 66.328125 35.976562 66.121094 36.597656 C 65.875 37.175781 65.152344 37.222656 64.628906 37.394531 C 64.601562 37.453125 64.542969 37.574219 64.515625 37.632812 C 65.085938 37.925781 65.714844 37.46875 66.285156 37.746094 C 66.5625 37.84375 66.667969 38.140625 66.78125 38.382812 C 66.585938 39.335938 65.515625 39.707031 64.652344 39.640625 C 64.285156 39.578125 63.800781 39.523438 63.609375 39.160156 C 63.4375 38.828125 63.753906 38.417969 64.109375 38.484375 C 64.417969 38.699219 64.6875 38.976562 65.03125 39.148438 C 65.347656 39.027344 65.917969 38.976562 65.8125 38.503906 C 65.640625 38.269531 65.324219 38.300781 65.070312 38.320312 C 64.691406 38.351562 64.308594 38.351562 63.925781 38.34375 C 63.828125 38.242188 63.730469 38.144531 63.632812 38.046875 C 63.628906 37.917969 63.628906 37.792969 63.628906 37.671875 C 63.78125 37.53125 63.933594 37.394531 64.089844 37.257812 C 63.914062 37.058594 63.648438 36.902344 63.601562 36.625 C 63.5 36.3125 63.679688 36.023438 63.792969 35.75 C 64.214844 35.523438 64.675781 35.394531 65.144531 35.328125 C 65.078125 35.09375 64.882812 34.808594 65.105469 34.597656 Z M 65.105469 34.597656 "/>
<path style=" stroke:none;fill-rule:nonzero;fill:rgb(97.254902%,98.431373%,97.647059%);fill-opacity:1;" d="M 61.429688 35.734375 C 61.761719 35.527344 62.203125 35.246094 62.585938 35.503906 C 63 35.785156 62.945312 36.335938 62.984375 36.773438 C 62.96875 37.144531 63.367188 37.324219 63.394531 37.6875 C 63.046875 38.054688 62.703125 38.675781 62.105469 38.453125 C 62.214844 37.730469 62.410156 36.945312 62.066406 36.257812 C 61.855469 36.3125 61.652344 36.367188 61.441406 36.421875 C 61.386719 36.710938 61.28125 37 61.324219 37.300781 C 61.359375 37.703125 61.734375 37.929688 61.914062 38.261719 C 61.4375 38.496094 60.902344 38.496094 60.382812 38.46875 L 60.167969 38.203125 C 60.300781 38.066406 60.433594 37.929688 60.574219 37.800781 C 60.613281 37.6875 60.652344 37.578125 60.691406 37.464844 C 60.628906 37.167969 60.601562 36.867188 60.585938 36.566406 L 60.175781 36.488281 C 60.179688 36.277344 60.230469 36.074219 60.308594 35.882812 C 60.542969 35.722656 60.777344 35.5625 61.015625 35.410156 C 61.164062 35.578125 61.269531 35.773438 61.367188 35.976562 C 61.382812 35.917969 61.414062 35.796875 61.429688 35.734375 Z M 61.429688 35.734375 "/>
<path style=" stroke:none;fill-rule:nonzero;fill:rgb(1.176471%,0.784314%,2.745098%);fill-opacity:1;" d="M 64.347656 36.304688 C 64.453125 35.910156 64.90625 35.9375 65.222656 35.988281 C 65.324219 36.144531 65.40625 36.3125 65.464844 36.488281 C 65.246094 36.621094 65.007812 36.722656 64.769531 36.820312 C 64.605469 36.683594 64.214844 36.601562 64.347656 36.304688 Z M 64.347656 36.304688 "/>
<path style=" stroke:none;fill-rule:nonzero;fill:rgb(97.254902%,98.431373%,96.470588%);fill-opacity:1;" d="M 52.328125 36.125 C 52.933594 35.828125 53.757812 36.03125 54.074219 36.648438 C 54.359375 37.269531 54.375 38.097656 53.859375 38.601562 C 53.480469 39.019531 52.832031 38.972656 52.335938 38.851562 C 51.289062 38.394531 51.273438 36.589844 52.328125 36.125 Z M 52.328125 36.125 "/>
<path style=" stroke:none;fill-rule:nonzero;fill:rgb(8.235294%,12.54902%,15.686275%);fill-opacity:1;" d="M 49.457031 36.820312 C 49.515625 36.8125 49.636719 36.796875 49.695312 36.789062 C 49.824219 37.175781 49.945312 37.5625 50.09375 37.941406 C 50.003906 38.03125 49.910156 38.125 49.820312 38.21875 C 49.863281 38.050781 49.90625 37.878906 49.941406 37.710938 C 49.792969 37.640625 49.648438 37.574219 49.503906 37.511719 C 49.488281 37.28125 49.472656 37.050781 49.457031 36.820312 Z M 49.457031 36.820312 "/>
<path style=" stroke:none;fill-rule:nonzero;fill:rgb(0.784314%,0.392157%,1.176471%);fill-opacity:1;" d="M 52.496094 36.84375 C 52.792969 36.511719 53.40625 36.726562 53.457031 37.15625 C 53.5 37.515625 53.570312 38.003906 53.183594 38.207031 C 52.910156 38.242188 52.546875 38.277344 52.421875 37.96875 C 52.253906 37.628906 52.222656 37.128906 52.496094 36.84375 Z M 52.496094 36.84375 "/>
<path style=" stroke:none;fill-rule:nonzero;fill:rgb(94.901961%,98.039216%,97.647059%);fill-opacity:1;" d="M 43.878906 37.359375 C 44.078125 37.136719 44.324219 36.996094 44.625 37.054688 C 44.625 37.304688 44.664062 37.601562 44.421875 37.761719 C 44.203125 37.8125 43.984375 37.816406 43.765625 37.835938 C 43.796875 38.363281 43.789062 38.886719 43.835938 39.414062 C 43.929688 39.53125 44.023438 39.648438 44.117188 39.769531 C 43.859375 40.121094 43.589844 40.585938 43.082031 40.542969 C 43.171875 39.984375 43.476562 39.355469 43.101562 38.835938 C 42.878906 39.1875 42.289062 39.136719 42.070312 38.8125 C 41.757812 38.453125 41.820312 37.820312 42.226562 37.550781 C 42.703125 37.203125 43.332031 37.417969 43.878906 37.359375 Z M 43.878906 37.359375 "/>
<path style=" stroke:none;fill-rule:nonzero;fill:rgb(1.176471%,1.568627%,3.137255%);fill-opacity:1;" d="M 42.378906 38.441406 C 42.4375 38.21875 42.398438 37.921875 42.664062 37.824219 C 42.839844 37.789062 43.019531 37.769531 43.203125 37.769531 C 43.214844 38.039062 43.234375 38.308594 43.257812 38.582031 C 42.980469 38.445312 42.675781 38.464844 42.378906 38.441406 Z M 42.378906 38.441406 "/>
<path style=" stroke:none;fill-rule:nonzero;fill:rgb(94.901961%,97.647059%,97.254902%);fill-opacity:1;" d="M 44.421875 37.761719 C 44.519531 37.796875 44.722656 37.871094 44.824219 37.90625 C 44.875 38.191406 44.878906 38.484375 44.898438 38.777344 C 45.207031 38.621094 45.527344 38.5625 45.832031 38.765625 C 45.863281 39.03125 45.890625 39.296875 45.910156 39.5625 C 45.996094 39.679688 46.082031 39.800781 46.164062 39.921875 C 46.011719 40.101562 45.851562 40.277344 45.6875 40.449219 L 45.292969 40.371094 C 45.4375 39.972656 45.546875 39.503906 45.28125 39.125 C 45.152344 39.171875 45.03125 39.234375 44.910156 39.292969 C 44.914062 39.484375 44.921875 39.679688 44.933594 39.871094 C 45.03125 40.03125 45.132812 40.191406 45.242188 40.34375 C 44.914062 40.390625 44.585938 40.417969 44.253906 40.425781 C 44.246094 40.375 44.234375 40.269531 44.226562 40.214844 C 44.3125 40.085938 44.398438 39.957031 44.476562 39.824219 C 44.378906 39.402344 44.382812 38.96875 44.382812 38.535156 C 43.894531 38.421875 44.328125 38.027344 44.421875 37.761719 Z M 44.421875 37.761719 "/>
<path style=" stroke:none;fill-rule:nonzero;fill:rgb(94.509804%,98.431373%,97.647059%);fill-opacity:1;" d="M 46.707031 38.597656 C 47.128906 38.511719 47.707031 38.550781 47.804688 39.070312 C 47.96875 39.667969 47.175781 39.589844 46.804688 39.609375 C 46.824219 39.667969 46.863281 39.789062 46.886719 39.851562 C 47.203125 39.84375 47.496094 39.703125 47.808594 39.667969 C 47.914062 40.417969 46.613281 40.53125 46.410156 39.867188 C 46.160156 39.417969 46.359375 38.921875 46.707031 38.597656 Z M 46.707031 38.597656 "/>
<path style=" stroke:none;fill-rule:nonzero;fill:rgb(38.039216%,65.098039%,76.470588%);fill-opacity:1;" d="M 46.625 39.089844 C 46.882812 39.007812 47.144531 38.9375 47.410156 38.878906 C 47.457031 39.363281 46.855469 39.414062 46.625 39.089844 Z M 46.625 39.089844 "/>
<path style=" stroke:none;fill-rule:nonzero;fill:rgb(97.254902%,98.823529%,97.647059%);fill-opacity:1;" d="M 49.535156 39.867188 C 49.824219 39.910156 50.082031 39.539062 50.355469 39.75 C 50.722656 40.058594 50.945312 40.550781 50.929688 41.035156 C 50.808594 41.136719 50.667969 41.207031 50.53125 41.28125 C 50.1875 40.992188 49.839844 40.691406 49.40625 40.542969 C 49.238281 40.601562 49.070312 40.664062 48.902344 40.726562 C 48.882812 40.933594 48.652344 41.207031 48.929688 41.332031 C 49.644531 41.746094 50.519531 41.839844 51.175781 42.378906 C 51.5625 42.894531 51.695312 43.542969 51.636719 44.179688 C 51.222656 45.769531 49 46.199219 47.855469 45.148438 C 47.140625 44.558594 47.132812 43.199219 47.996094 42.738281 C 48.445312 42.457031 49.105469 42.460938 49.449219 42.910156 C 49.386719 43.058594 49.324219 43.210938 49.261719 43.363281 C 48.953125 43.46875 48.578125 43.484375 48.367188 43.757812 C 48.261719 44.144531 48.417969 44.609375 48.808594 44.769531 C 49.324219 44.996094 50.027344 44.945312 50.4375 44.527344 C 50.898438 44 50.757812 43.078125 50.132812 42.738281 C 49.519531 42.414062 48.800781 42.300781 48.222656 41.90625 C 47.765625 41.589844 47.6875 40.914062 48.015625 40.480469 C 48.335938 39.972656 48.964844 39.789062 49.535156 39.867188 Z M 49.535156 39.867188 "/>
<path style=" stroke:none;fill-rule:nonzero;fill:rgb(96.862745%,98.039216%,97.647059%);fill-opacity:1;" d="M 63.921875 40.554688 C 64.296875 40.222656 64.863281 40.554688 65.246094 40.238281 C 65.316406 40.238281 65.457031 40.234375 65.527344 40.234375 C 65.714844 40.53125 65.859375 40.851562 65.976562 41.183594 C 65.578125 41.542969 65.171875 41.175781 64.820312 40.953125 C 64.757812 40.960938 64.628906 40.976562 64.5625 40.984375 C 64.5625 41.089844 64.5625 41.199219 64.5625 41.308594 C 65.015625 41.515625 65.570312 41.566406 65.925781 41.941406 C 66.199219 42.234375 66.003906 42.628906 65.925781 42.964844 C 65.5625 43.273438 65.101562 43.359375 64.636719 43.277344 C 64.472656 43.359375 64.296875 43.519531 64.097656 43.433594 C 63.773438 43.160156 63.558594 42.753906 63.574219 42.320312 C 64.074219 42.058594 64.457031 42.546875 64.902344 42.695312 C 65.230469 42.828125 65.15625 42.421875 65.195312 42.246094 C 64.730469 42.097656 64.257812 41.957031 63.820312 41.734375 L 63.621094 41.414062 C 63.613281 41.101562 63.675781 40.769531 63.921875 40.554688 Z M 63.921875 40.554688 "/>
<path style=" stroke:none;fill-rule:nonzero;fill:rgb(97.254902%,98.823529%,97.647059%);fill-opacity:1;" d="M 58.472656 41.019531 C 58.851562 40.792969 59.320312 40.550781 59.757812 40.792969 C 60.597656 41.269531 60.699219 42.542969 60.15625 43.28125 C 59.890625 43.703125 59.253906 43.828125 58.855469 43.523438 C 58.621094 43.402344 58.601562 43.019531 58.8125 42.867188 C 59.007812 42.835938 59.210938 42.824219 59.410156 42.828125 C 59.730469 42.519531 59.8125 42.089844 59.605469 41.691406 L 59.296875 41.476562 C 59.003906 41.480469 58.628906 41.550781 58.5625 41.894531 C 58.511719 42.355469 58.542969 42.820312 58.5625 43.28125 C 58.554688 43.546875 58.828125 43.679688 58.949219 43.886719 C 59.011719 44.101562 58.804688 44.25 58.695312 44.40625 C 58.429688 44.660156 58.148438 45.035156 57.730469 44.921875 C 57.5625 44.542969 57.800781 44.152344 57.789062 43.765625 C 57.761719 43.144531 57.683594 42.527344 57.699219 41.90625 C 57.566406 41.839844 57.433594 41.777344 57.300781 41.714844 C 57.289062 41.636719 57.261719 41.484375 57.253906 41.40625 C 57.523438 41.117188 57.816406 40.789062 58.242188 40.753906 C 58.296875 40.820312 58.414062 40.953125 58.472656 41.019531 Z M 58.472656 41.019531 "/>
<path style=" stroke:none;fill-rule:nonzero;fill:rgb(97.254902%,98.431373%,97.647059%);fill-opacity:1;" d="M 61.214844 40.871094 C 61.777344 40.300781 62.898438 40.410156 63.253906 41.164062 C 63.390625 41.457031 63.480469 41.964844 63.109375 42.121094 C 62.652344 42.359375 62.132812 42.289062 61.640625 42.292969 C 61.652344 42.363281 61.679688 42.507812 61.695312 42.578125 C 62.238281 42.976562 62.746094 42.410156 63.3125 42.429688 C 63.324219 42.601562 63.359375 42.773438 63.335938 42.949219 C 63.132812 43.3125 62.691406 43.398438 62.332031 43.527344 C 61.648438 43.539062 60.957031 43.101562 60.851562 42.394531 C 60.691406 41.867188 60.835938 41.269531 61.214844 40.871094 Z M 61.214844 40.871094 "/>
<path style=" stroke:none;fill-rule:nonzero;fill:rgb(97.647059%,99.215686%,97.254902%);fill-opacity:1;" d="M 54.714844 41.382812 C 55.0625 40.855469 55.785156 40.824219 56.332031 40.984375 C 57.015625 41.238281 57.148438 42.050781 57.128906 42.691406 C 57.007812 43.0625 56.855469 43.484375 56.472656 43.667969 C 56.105469 43.882812 55.671875 43.800781 55.269531 43.816406 C 54.390625 43.382812 54.113281 42.152344 54.714844 41.382812 Z M 54.714844 41.382812 "/>
<path style=" stroke:none;fill-rule:nonzero;fill:rgb(96.862745%,98.823529%,97.254902%);fill-opacity:1;" d="M 52.324219 41.328125 C 52.582031 41.101562 52.925781 41.046875 53.238281 40.957031 C 53.53125 41.058594 53.863281 41.117188 54.085938 41.34375 C 54.253906 41.570312 54.207031 41.917969 53.945312 42.054688 C 53.570312 41.902344 53.199219 41.699219 52.78125 41.765625 C 52.546875 42.179688 52.441406 42.800781 52.878906 43.125 C 53.347656 43.355469 53.789062 42.882812 54.269531 42.957031 C 54.28125 43.203125 54.394531 43.539062 54.125 43.691406 C 53.761719 44.039062 53.214844 44.0625 52.746094 43.964844 C 51.710938 43.589844 51.496094 42.011719 52.324219 41.328125 Z M 52.324219 41.328125 "/>
<path style=" stroke:none;fill-rule:nonzero;fill:rgb(1.176471%,3.137255%,3.921569%);fill-opacity:1;" d="M 61.742188 41.246094 C 62.09375 41.167969 62.605469 41.082031 62.632812 41.585938 C 62.261719 41.691406 61.878906 41.746094 61.496094 41.765625 C 61.574219 41.589844 61.65625 41.417969 61.742188 41.246094 Z M 61.742188 41.246094 "/>
<path style=" stroke:none;fill-rule:nonzero;fill:rgb(1.568627%,1.176471%,1.568627%);fill-opacity:1;" d="M 55.414062 41.640625 C 55.644531 41.53125 55.90625 41.609375 56.148438 41.640625 C 56.328125 41.988281 56.472656 42.390625 56.3125 42.777344 C 56.171875 43.253906 55.390625 43.265625 55.226562 42.789062 C 55.171875 42.40625 55.085938 41.929688 55.414062 41.640625 Z M 55.414062 41.640625 "/>
<path style=" stroke:none;fill-rule:nonzero;fill:rgb(100%,100%,100%);fill-opacity:1;" d="M 79.9375 45.640625 C 80.910156 45.417969 81.617188 44.65625 82.367188 44.078125 C 83.726562 44.21875 85.023438 44.863281 85.976562 45.84375 C 86.808594 46.773438 87.386719 47.992188 87.332031 49.261719 C 87.410156 50.949219 86.519531 52.570312 85.222656 53.609375 C 83.027344 55.410156 79.5625 55.445312 77.398438 53.578125 C 76.117188 52.507812 75.390625 50.785156 75.597656 49.125 C 75.703125 48.113281 76.132812 47.15625 76.746094 46.351562 C 77.816406 46.140625 78.871094 45.875 79.9375 45.640625 Z M 79.9375 45.640625 "/>
<path style=" stroke:none;fill-rule:nonzero;fill:rgb(98.039216%,98.823529%,98.039216%);fill-opacity:1;" d="M 16.960938 46.804688 C 17.359375 47.207031 17.75 47.613281 18.160156 48.007812 C 18.453125 48.261719 18.5 48.671875 18.636719 49.015625 C 20.597656 54.5625 23.984375 59.597656 28.390625 63.503906 C 32.3125 67 37.027344 69.609375 42.089844 71.03125 C 47.855469 72.664062 54.050781 72.773438 59.867188 71.328125 C 68.117188 69.328125 75.523438 64.15625 80.304688 57.152344 C 80.707031 57.105469 81.113281 57.058594 81.523438 57.042969 C 76.660156 64.511719 68.925781 70.070312 60.269531 72.203125 C 58.1875 72.75 56.050781 73.070312 53.910156 73.214844 C 50.972656 73.410156 48.015625 73.234375 45.121094 72.710938 C 39.421875 71.679688 33.992188 69.214844 29.445312 65.632812 C 23.417969 60.902344 18.941406 54.214844 16.960938 46.804688 Z M 16.960938 46.804688 "/>
<path style=" stroke:none;fill-rule:nonzero;fill:rgb(100%,100%,100%);fill-opacity:1;" d="M 71.613281 47.304688 C 71.789062 47.285156 71.96875 47.222656 72.148438 47.265625 C 73.21875 48.136719 73.980469 49.390625 74.152344 50.769531 C 74.578125 53.464844 72.644531 56.160156 70.085938 56.921875 C 68.355469 57.484375 66.371094 57.253906 64.863281 56.222656 C 63.679688 55.453125 62.804688 54.21875 62.519531 52.828125 C 62.191406 51.4375 62.515625 49.921875 63.292969 48.734375 C 63.390625 48.527344 63.636719 48.554688 63.824219 48.519531 C 66.429688 48.179688 69.023438 47.753906 71.613281 47.304688 Z M 35.601562 51.738281 C 36.167969 49.984375 37.546875 48.453125 39.320312 47.886719 C 39.5625 48.640625 40.160156 49.25 40.921875 49.484375 C 42.59375 50.054688 44.390625 49.828125 46.125 49.878906 C 46.980469 51.136719 47.421875 52.722656 47.101562 54.230469 C 46.652344 56.910156 44.117188 59.019531 41.410156 59.015625 C 39.441406 59.109375 37.46875 58.125 36.363281 56.492188 C 35.414062 55.121094 35.15625 53.339844 35.601562 51.738281 Z M 50.503906 49.761719 C 53.394531 49.628906 56.285156 49.421875 59.15625 49.070312 C 60.175781 50.105469 60.828125 51.527344 60.769531 52.992188 C 60.753906 54.71875 59.804688 56.363281 58.40625 57.34375 C 57.085938 58.285156 55.367188 58.660156 53.78125 58.308594 C 51.726562 57.902344 49.976562 56.265625 49.488281 54.214844 C 49.359375 53.296875 49.347656 52.347656 49.625 51.453125 C 49.832031 50.847656 50.160156 50.296875 50.503906 49.761719 Z M 50.503906 49.761719 "/>
<path style=" stroke:none;fill-rule:nonzero;fill:rgb(98.039216%,98.823529%,98.431373%);fill-opacity:1;" d="M 32.578125 50.914062 C 32.792969 50.804688 33.007812 50.703125 33.226562 50.597656 C 32.738281 51.78125 32.601562 53.070312 32.664062 54.339844 C 31.820312 53.363281 31.035156 52.339844 30.308594 51.277344 C 31.082031 51.308594 31.855469 51.199219 32.578125 50.914062 Z M 32.578125 50.914062 "/>
<path style=" stroke:none;fill-rule:nonzero;fill:rgb(98.431373%,99.215686%,98.431373%);fill-opacity:1;" d="M 26.394531 55.460938 C 27.507812 54.765625 28.558594 53.960938 29.679688 53.277344 C 29.945312 53.667969 30.207031 54.0625 30.449219 54.464844 C 29.433594 55.128906 28.441406 55.816406 27.429688 56.476562 C 26.949219 56.765625 26.421875 57.070312 25.835938 57 C 24.800781 56.964844 23.972656 55.898438 24.132812 54.886719 C 24.246094 54.265625 24.6875 53.722656 25.265625 53.464844 C 25.488281 53.816406 25.742188 54.148438 25.957031 54.507812 C 25.757812 54.804688 25.335938 55.074219 25.519531 55.484375 C 25.742188 55.796875 26.132812 55.609375 26.394531 55.460938 Z M 26.394531 55.460938 "/>
<path style=" stroke:none;fill-rule:nonzero;fill:rgb(98.823529%,99.215686%,98.431373%);fill-opacity:1;" d="M 29.507812 56.632812 C 29.945312 56.222656 30.441406 55.730469 31.09375 55.804688 C 32.089844 55.941406 32.902344 56.816406 33.058594 57.796875 C 33.109375 58.394531 32.742188 58.921875 32.292969 59.28125 C 31.304688 60.160156 30.390625 61.121094 29.367188 61.960938 C 29.113281 61.699219 28.851562 61.441406 28.597656 61.179688 C 29.070312 60.554688 29.703125 60.066406 30.285156 59.546875 C 30 59.195312 29.695312 58.859375 29.386719 58.527344 C 28.765625 59 28.242188 59.578125 27.648438 60.082031 C 27.382812 59.839844 27.128906 59.585938 26.875 59.332031 C 26.871094 59.28125 26.859375 59.179688 26.851562 59.128906 C 27.714844 58.273438 28.644531 57.484375 29.507812 56.632812 Z M 29.507812 56.632812 "/>
<path style=" stroke:none;fill-rule:nonzero;fill:rgb(100%,100%,100%);fill-opacity:1;" d="M 53.359375 60.511719 C 56.503906 60.917969 59.804688 59.183594 61.210938 56.328125 C 62.109375 57.550781 63.410156 58.453125 64.855469 58.910156 C 64.851562 58.9375 64.839844 58.996094 64.832031 59.027344 C 59.976562 62.019531 54.101562 63.332031 48.441406 62.605469 C 46.296875 62.335938 44.175781 61.804688 42.175781 60.976562 C 44.5 60.511719 46.539062 58.921875 47.617188 56.820312 C 48.804688 58.867188 51.007812 60.273438 53.359375 60.511719 Z M 53.359375 60.511719 "/>
<path style=" stroke:none;fill-rule:nonzero;fill:rgb(0.784314%,1.176471%,1.568627%);fill-opacity:1;" d="M 30.796875 57.152344 C 31.320312 57.117188 31.925781 57.605469 31.714844 58.167969 C 31.53125 58.386719 31.300781 58.566406 31.085938 58.75 C 30.765625 58.441406 30.457031 58.125 30.164062 57.789062 C 30.371094 57.574219 30.585938 57.363281 30.796875 57.152344 Z M 30.796875 57.152344 "/>
<path style=" stroke:none;fill-rule:nonzero;fill:rgb(98.431373%,99.215686%,98.431373%);fill-opacity:1;" d="M 34.386719 58.34375 C 34.710938 58.558594 35.019531 58.796875 35.332031 59.03125 C 34.917969 59.996094 34.527344 60.96875 34.082031 61.917969 C 34.066406 62.007812 34.03125 62.1875 34.015625 62.273438 C 34.894531 61.507812 35.8125 60.792969 36.714844 60.054688 C 37.011719 60.300781 37.316406 60.535156 37.632812 60.757812 C 36.070312 62.078125 34.460938 63.34375 32.882812 64.652344 C 32.585938 64.425781 32.289062 64.207031 31.984375 63.988281 C 32.773438 62.101562 33.59375 60.230469 34.386719 58.34375 Z M 34.386719 58.34375 "/>
<path style=" stroke:none;fill-rule:nonzero;fill:rgb(98.431373%,99.215686%,97.647059%);fill-opacity:1;" d="M 63.097656 62.375 C 64.195312 61.761719 65.261719 61.09375 66.332031 60.4375 C 66.554688 60.78125 66.765625 61.132812 66.957031 61.5 C 66.609375 61.710938 66.242188 61.894531 65.914062 62.132812 C 65.941406 62.3125 66.039062 62.46875 66.132812 62.625 C 66.828125 63.78125 67.546875 64.929688 68.21875 66.101562 C 68.25 66.125 68.316406 66.167969 68.347656 66.191406 C 67.996094 66.394531 67.652344 66.609375 67.320312 66.835938 C 66.398438 65.542969 65.683594 64.113281 64.8125 62.789062 C 64.4375 63.007812 64.074219 63.238281 63.6875 63.433594 C 63.492188 63.078125 63.292969 62.730469 63.097656 62.375 Z M 63.097656 62.375 "/>
<path style=" stroke:none;fill-rule:nonzero;fill:rgb(98.431373%,99.215686%,98.039216%);fill-opacity:1;" d="M 38.457031 61.765625 C 39.570312 61.4375 40.933594 62.140625 41.210938 63.292969 C 41.320312 63.898438 40.953125 64.433594 40.699219 64.953125 C 40.175781 66.011719 39.621094 67.050781 39.085938 68.101562 C 38.726562 67.941406 38.378906 67.757812 38.035156 67.570312 C 38.378906 66.867188 38.738281 66.175781 39.085938 65.476562 C 38.679688 65.269531 38.289062 65.019531 37.851562 64.882812 C 37.527344 65.5625 37.148438 66.214844 36.835938 66.898438 C 36.460938 66.796875 36.113281 66.613281 35.765625 66.449219 C 35.792969 66.132812 35.929688 65.847656 36.078125 65.574219 C 36.554688 64.628906 37.0625 63.699219 37.523438 62.746094 C 37.710938 62.324219 37.996094 61.910156 38.457031 61.765625 Z M 38.457031 61.765625 "/>
<path style=" stroke:none;fill-rule:nonzero;fill:rgb(0.784314%,1.176471%,1.568627%);fill-opacity:1;" d="M 38.765625 63.097656 C 38.84375 63.070312 39 63.011719 39.074219 62.980469 C 39.441406 63.054688 39.984375 63.21875 39.976562 63.683594 C 39.886719 63.976562 39.722656 64.238281 39.578125 64.507812 C 39.171875 64.308594 38.765625 64.109375 38.367188 63.890625 C 38.492188 63.625 38.628906 63.359375 38.765625 63.097656 Z M 38.765625 63.097656 "/>
<path style=" stroke:none;fill-rule:nonzero;fill:rgb(98.823529%,99.607843%,98.823529%);fill-opacity:1;" d="M 58.882812 63.875 C 59.855469 63.605469 60.816406 62.835938 61.859375 63.222656 C 62.859375 63.507812 63.429688 64.769531 62.953125 65.707031 C 62.648438 66.316406 62.046875 66.683594 61.421875 66.902344 C 61.683594 67.589844 61.964844 68.269531 62.195312 68.96875 C 61.859375 69.117188 61.519531 69.246094 61.1875 69.398438 C 61.105469 69.402344 61.023438 69.40625 60.941406 69.410156 C 60.390625 68.007812 59.867188 66.59375 59.324219 65.1875 C 59.15625 64.757812 58.949219 64.335938 58.882812 63.875 Z M 58.882812 63.875 "/>
<path style=" stroke:none;fill-rule:nonzero;fill:rgb(98.039216%,98.823529%,97.647059%);fill-opacity:1;" d="M 43.019531 63.546875 C 43.671875 63.351562 44.398438 63.488281 44.964844 63.863281 C 45.574219 64.335938 45.691406 65.207031 45.472656 65.910156 C 45.113281 65.820312 44.757812 65.71875 44.40625 65.601562 C 44.371094 65.304688 44.433594 64.890625 44.109375 64.734375 C 43.910156 64.59375 43.664062 64.636719 43.4375 64.621094 C 43.371094 64.789062 43.300781 64.957031 43.234375 65.125 C 43.851562 65.675781 44.691406 66.050781 45.007812 66.875 C 45.355469 67.9375 44.597656 69.179688 43.503906 69.386719 C 43.339844 69.382812 43.183594 69.382812 43.023438 69.382812 C 42.460938 69.242188 41.828125 69.042969 41.523438 68.5 C 41.195312 67.972656 41.292969 67.324219 41.378906 66.746094 C 41.78125 66.832031 42.1875 66.921875 42.574219 67.070312 C 42.601562 67.460938 42.554688 67.882812 42.847656 68.191406 C 42.992188 68.191406 43.277344 68.191406 43.417969 68.191406 C 43.605469 67.933594 43.835938 67.640625 43.789062 67.304688 C 43.355469 66.710938 42.570312 66.476562 42.195312 65.828125 C 41.859375 65.019531 42.191406 63.914062 43.019531 63.546875 Z M 43.019531 63.546875 "/>
<path style=" stroke:none;fill-rule:nonzero;fill:rgb(98.431373%,99.607843%,98.039216%);fill-opacity:1;" d="M 56.636719 64.25 C 57.074219 64.15625 57.507812 64.0625 57.949219 64 C 58.351562 65.933594 58.6875 67.882812 59.097656 69.816406 C 58.738281 69.902344 58.378906 69.976562 58.015625 70.035156 C 57.972656 70.0625 57.882812 70.117188 57.835938 70.148438 C 57.660156 69.664062 57.59375 69.148438 57.488281 68.648438 C 57.203125 67.183594 56.914062 65.71875 56.636719 64.25 Z M 56.636719 64.25 "/>
<path style=" stroke:none;fill-rule:nonzero;fill:rgb(0.784314%,0.784314%,1.568627%);fill-opacity:1;" d="M 60.546875 64.648438 C 60.902344 64.5 61.28125 64.394531 61.671875 64.476562 C 61.824219 64.75 61.941406 65.074219 61.800781 65.378906 C 61.566406 65.609375 61.246094 65.699219 60.9375 65.777344 C 60.804688 65.402344 60.664062 65.027344 60.546875 64.648438 Z M 60.546875 64.648438 "/>
<path style=" stroke:none;fill-rule:nonzero;fill:rgb(98.823529%,99.607843%,99.215686%);fill-opacity:1;" d="M 47.082031 65.296875 C 47.71875 64.300781 49.335938 64.160156 50.152344 65.023438 C 50.398438 65.265625 50.511719 65.597656 50.652344 65.902344 C 50.652344 66.214844 50.648438 66.53125 50.644531 66.84375 C 50.234375 66.859375 49.828125 66.820312 49.421875 66.78125 C 49.417969 66.570312 49.410156 66.359375 49.414062 66.152344 C 49.144531 65.859375 48.730469 65.691406 48.351562 65.867188 C 48.015625 66.105469 48.074219 66.558594 47.996094 66.914062 C 47.9375 67.5 47.796875 68.078125 47.800781 68.671875 C 47.851562 68.746094 47.957031 68.898438 48.007812 68.972656 C 48.320312 69.15625 48.671875 69.117188 48.988281 68.964844 C 49.074219 68.753906 49.164062 68.546875 49.25 68.339844 C 49.652344 68.382812 50.054688 68.445312 50.460938 68.488281 C 50.457031 69.09375 50.257812 69.777344 49.6875 70.082031 C 48.804688 70.5625 47.53125 70.488281 46.890625 69.632812 C 46.378906 69.070312 46.5 68.253906 46.628906 67.566406 C 46.792969 66.8125 46.785156 66.015625 47.082031 65.296875 Z M 47.082031 65.296875 "/>
<path style=" stroke:none;fill-rule:nonzero;fill:rgb(99.215686%,99.607843%,98.823529%);fill-opacity:1;" d="M 51.605469 64.734375 C 52.375 64.625 53.15625 64.570312 53.9375 64.570312 C 54.332031 64.554688 54.691406 64.746094 55.035156 64.929688 C 55.597656 65.617188 55.699219 66.632812 55.277344 67.417969 C 55.136719 67.691406 54.886719 67.886719 54.742188 68.15625 C 55.070312 68.921875 55.566406 69.601562 55.949219 70.34375 C 55.503906 70.351562 55.066406 70.394531 54.628906 70.421875 C 54.136719 69.683594 53.742188 68.878906 53.199219 68.179688 C 53.203125 68.964844 53.339844 69.746094 53.355469 70.53125 C 52.941406 70.570312 52.527344 70.625 52.109375 70.640625 C 52.054688 70.21875 52.042969 69.792969 51.992188 69.371094 C 51.910156 68.363281 51.816406 67.351562 51.726562 66.34375 C 51.664062 65.808594 51.640625 65.269531 51.605469 64.734375 Z M 51.605469 64.734375 "/>
<path style=" stroke:none;fill-rule:nonzero;fill:rgb(0.392157%,0.784314%,1.568627%);fill-opacity:1;" d="M 53.003906 65.808594 C 53.429688 65.679688 53.867188 65.753906 54.234375 66 C 54.285156 66.167969 54.335938 66.335938 54.390625 66.5 C 54.285156 66.699219 54.203125 66.933594 53.996094 67.046875 C 53.714844 67.128906 53.425781 67.175781 53.136719 67.222656 C 53.042969 66.757812 53.007812 66.285156 53.003906 65.808594 Z M 53.003906 65.808594 "/>
</g>
</svg>
